<svg width="1280" height="3588" viewBox="0 0 1280 3588" fill="none" xmlns="http://www.w3.org/2000/svg">
<g clip-path="url(#clip0_985_600)">
<rect width="1280" height="3588" fill="#212121"/>
<rect width="1280" height="3588" fill="url(#paint0_linear_985_600)" fill-opacity="0.47"/>
<rect width="1280" height="3588" fill="url(#paint1_linear_985_600)" fill-opacity="0.48"/>
<g style="mix-blend-mode:overlay">
<line x1="0.369916" y1="-2382.59" x2="0.369916" y2="4022" stroke="white" stroke-opacity="0.2" stroke-width="0.671962"/>
<line x1="26.1727" y1="-2382.59" x2="26.1727" y2="4022" stroke="white" stroke-opacity="0.2" stroke-width="0.671962"/>
<line x1="51.9751" y1="-2382.59" x2="51.9751" y2="4022" stroke="white" stroke-opacity="0.2" stroke-width="0.671962"/>
<line x1="77.7781" y1="-2382.59" x2="77.7781" y2="4022" stroke="white" stroke-opacity="0.2" stroke-width="0.671962"/>
<line x1="103.581" y1="-2382.59" x2="103.581" y2="4022" stroke="white" stroke-opacity="0.2" stroke-width="0.671962"/>
<line x1="129.383" y1="-2382.59" x2="129.383" y2="4022" stroke="white" stroke-opacity="0.2" stroke-width="0.671962"/>
<line x1="155.186" y1="-2382.59" x2="155.186" y2="4022" stroke="white" stroke-opacity="0.2" stroke-width="0.671962"/>
<line x1="180.989" y1="-2382.59" x2="180.989" y2="4022" stroke="white" stroke-opacity="0.2" stroke-width="0.671962"/>
<line x1="206.791" y1="-2382.59" x2="206.791" y2="4022" stroke="white" stroke-opacity="0.2" stroke-width="0.671962"/>
<line x1="232.594" y1="-2382.59" x2="232.594" y2="4022" stroke="white" stroke-opacity="0.2" stroke-width="0.671962"/>
<line x1="258.397" y1="-2382.59" x2="258.397" y2="4022" stroke="white" stroke-opacity="0.2" stroke-width="0.671962"/>
<line x1="284.199" y1="-2382.59" x2="284.199" y2="4022" stroke="white" stroke-opacity="0.2" stroke-width="0.671962"/>
<line x1="310.002" y1="-2382.59" x2="310.002" y2="4022" stroke="white" stroke-opacity="0.2" stroke-width="0.671962"/>
<line x1="335.804" y1="-2382.59" x2="335.804" y2="4022" stroke="white" stroke-opacity="0.2" stroke-width="0.671962"/>
<line x1="361.607" y1="-2382.59" x2="361.607" y2="4022" stroke="white" stroke-opacity="0.2" stroke-width="0.671962"/>
<line x1="387.41" y1="-2382.59" x2="387.41" y2="4022" stroke="white" stroke-opacity="0.2" stroke-width="0.671962"/>
<line x1="413.212" y1="-2382.59" x2="413.212" y2="4022" stroke="white" stroke-opacity="0.2" stroke-width="0.671962"/>
<line x1="439.015" y1="-2382.59" x2="439.015" y2="4022" stroke="white" stroke-opacity="0.2" stroke-width="0.671962"/>
<line x1="464.818" y1="-2382.59" x2="464.818" y2="4022" stroke="white" stroke-opacity="0.2" stroke-width="0.671962"/>
<line x1="490.62" y1="-2382.59" x2="490.62" y2="4022" stroke="white" stroke-opacity="0.2" stroke-width="0.671962"/>
<line x1="516.423" y1="-2382.59" x2="516.423" y2="4022" stroke="white" stroke-opacity="0.2" stroke-width="0.671962"/>
<line x1="542.226" y1="-2382.59" x2="542.226" y2="4022" stroke="white" stroke-opacity="0.2" stroke-width="0.671962"/>
<line x1="568.028" y1="-2382.59" x2="568.028" y2="4022" stroke="white" stroke-opacity="0.2" stroke-width="0.671962"/>
<line x1="593.831" y1="-2382.59" x2="593.831" y2="4022" stroke="white" stroke-opacity="0.2" stroke-width="0.671962"/>
<line x1="619.634" y1="-2382.59" x2="619.634" y2="4022" stroke="white" stroke-opacity="0.2" stroke-width="0.671962"/>
<line x1="645.436" y1="-2382.59" x2="645.436" y2="4022" stroke="white" stroke-opacity="0.2" stroke-width="0.671962"/>
<line x1="671.239" y1="-2382.59" x2="671.239" y2="4022" stroke="white" stroke-opacity="0.2" stroke-width="0.671962"/>
<line x1="697.042" y1="-2382.59" x2="697.042" y2="4022" stroke="white" stroke-opacity="0.2" stroke-width="0.671962"/>
<line x1="722.844" y1="-2382.59" x2="722.844" y2="4022" stroke="white" stroke-opacity="0.2" stroke-width="0.671962"/>
<line x1="748.647" y1="-2382.59" x2="748.647" y2="4022" stroke="white" stroke-opacity="0.2" stroke-width="0.671962"/>
<line x1="774.45" y1="-2382.59" x2="774.45" y2="4022" stroke="white" stroke-opacity="0.2" stroke-width="0.671962"/>
<line x1="800.252" y1="-2382.59" x2="800.252" y2="4022" stroke="white" stroke-opacity="0.2" stroke-width="0.671962"/>
<line x1="826.055" y1="-2382.59" x2="826.055" y2="4022" stroke="white" stroke-opacity="0.2" stroke-width="0.671962"/>
<line x1="851.857" y1="-2382.59" x2="851.857" y2="4022" stroke="white" stroke-opacity="0.2" stroke-width="0.671962"/>
<line x1="877.66" y1="-2382.59" x2="877.66" y2="4022" stroke="white" stroke-opacity="0.2" stroke-width="0.671962"/>
<line x1="903.463" y1="-2382.59" x2="903.463" y2="4022" stroke="white" stroke-opacity="0.2" stroke-width="0.671962"/>
<line x1="929.265" y1="-2382.59" x2="929.265" y2="4022" stroke="white" stroke-opacity="0.2" stroke-width="0.671962"/>
<line x1="955.068" y1="-2382.59" x2="955.068" y2="4022" stroke="white" stroke-opacity="0.2" stroke-width="0.671962"/>
<line x1="980.871" y1="-2382.59" x2="980.871" y2="4022" stroke="white" stroke-opacity="0.2" stroke-width="0.671962"/>
<line x1="1006.67" y1="-2382.59" x2="1006.67" y2="4022" stroke="white" stroke-opacity="0.2" stroke-width="0.671962"/>
<line x1="1032.48" y1="-2382.59" x2="1032.48" y2="4022" stroke="white" stroke-opacity="0.2" stroke-width="0.671962"/>
<line x1="1058.28" y1="-2382.59" x2="1058.28" y2="4022" stroke="white" stroke-opacity="0.2" stroke-width="0.671962"/>
<line x1="1084.08" y1="-2382.59" x2="1084.08" y2="4022" stroke="white" stroke-opacity="0.2" stroke-width="0.671962"/>
<line x1="1109.88" y1="-2382.59" x2="1109.88" y2="4022" stroke="white" stroke-opacity="0.2" stroke-width="0.671962"/>
<line x1="1135.69" y1="-2382.59" x2="1135.69" y2="4022" stroke="white" stroke-opacity="0.2" stroke-width="0.671962"/>
<line x1="1161.49" y1="-2382.59" x2="1161.49" y2="4022" stroke="white" stroke-opacity="0.2" stroke-width="0.671962"/>
<line x1="1187.29" y1="-2382.59" x2="1187.29" y2="4022" stroke="white" stroke-opacity="0.2" stroke-width="0.671962"/>
<line x1="1213.09" y1="-2382.59" x2="1213.09" y2="4022" stroke="white" stroke-opacity="0.2" stroke-width="0.671962"/>
<line x1="1238.9" y1="-2382.59" x2="1238.9" y2="4022" stroke="white" stroke-opacity="0.2" stroke-width="0.671962"/>
<line x1="1264.7" y1="-2382.59" x2="1264.7" y2="4022" stroke="white" stroke-opacity="0.2" stroke-width="0.671962"/>
<line x1="1290.14" y1="17.3946" x2="0.00317381" y2="17.3945" stroke="white" stroke-opacity="0.2" stroke-width="0.671962"/>
<line x1="1290.14" y1="43.1993" x2="0.00317381" y2="43.1992" stroke="white" stroke-opacity="0.2" stroke-width="0.671962"/>
<line x1="1290.14" y1="69" x2="0.00317381" y2="69" stroke="white" stroke-opacity="0.2" stroke-width="0.671962"/>
<line x1="1290.14" y1="94.8047" x2="0.00317381" y2="94.8047" stroke="white" stroke-opacity="0.2" stroke-width="0.671962"/>
<line x1="1290.14" y1="120.609" x2="0.00317381" y2="120.609" stroke="white" stroke-opacity="0.2" stroke-width="0.671962"/>
<line x1="1290.14" y1="146.41" x2="0.00317381" y2="146.41" stroke="white" stroke-opacity="0.2" stroke-width="0.671962"/>
<line x1="1290.14" y1="172.211" x2="0.00317381" y2="172.211" stroke="white" stroke-opacity="0.2" stroke-width="0.671962"/>
<line x1="1290.14" y1="198.016" x2="0.00317381" y2="198.016" stroke="white" stroke-opacity="0.2" stroke-width="0.671962"/>
<line x1="1290.14" y1="223.816" x2="0.00317381" y2="223.816" stroke="white" stroke-opacity="0.2" stroke-width="0.671962"/>
<line x1="1290.14" y1="249.621" x2="0.00366209" y2="249.621" stroke="white" stroke-opacity="0.2" stroke-width="0.671962"/>
<line x1="1290.14" y1="275.422" x2="0.00366209" y2="275.422" stroke="white" stroke-opacity="0.2" stroke-width="0.671962"/>
<line x1="1290.14" y1="301.227" x2="0.00366209" y2="301.227" stroke="white" stroke-opacity="0.2" stroke-width="0.671962"/>
<line x1="1290.14" y1="327.027" x2="0.00366209" y2="327.027" stroke="white" stroke-opacity="0.2" stroke-width="0.671962"/>
<line x1="1290.14" y1="352.832" x2="0.00366209" y2="352.832" stroke="white" stroke-opacity="0.2" stroke-width="0.671962"/>
<line x1="1290.14" y1="378.633" x2="0.00366209" y2="378.633" stroke="white" stroke-opacity="0.2" stroke-width="0.671962"/>
<line x1="1290.14" y1="404.434" x2="0.00415038" y2="404.434" stroke="white" stroke-opacity="0.2" stroke-width="0.671962"/>
<line x1="1290.14" y1="430.242" x2="0.00415038" y2="430.242" stroke="white" stroke-opacity="0.2" stroke-width="0.671962"/>
<line x1="1290.14" y1="456.043" x2="0.00415038" y2="456.043" stroke="white" stroke-opacity="0.2" stroke-width="0.671962"/>
<line x1="1290.14" y1="481.844" x2="0.00415038" y2="481.844" stroke="white" stroke-opacity="0.2" stroke-width="0.671962"/>
<line x1="1290.14" y1="507.648" x2="0.00415038" y2="507.648" stroke="white" stroke-opacity="0.2" stroke-width="0.671962"/>
<line x1="1290.14" y1="533.449" x2="0.00415038" y2="533.449" stroke="white" stroke-opacity="0.2" stroke-width="0.671962"/>
<line x1="1290.14" y1="559.25" x2="0.00415038" y2="559.25" stroke="white" stroke-opacity="0.2" stroke-width="0.671962"/>
<line x1="1290.14" y1="585.055" x2="0.00415038" y2="585.055" stroke="white" stroke-opacity="0.2" stroke-width="0.671962"/>
<line x1="1290.14" y1="610.859" x2="0.00415038" y2="610.859" stroke="white" stroke-opacity="0.2" stroke-width="0.671962"/>
<line x1="1290.14" y1="636.66" x2="0.00463866" y2="636.66" stroke="white" stroke-opacity="0.2" stroke-width="0.671962"/>
<line x1="1290.14" y1="662.465" x2="0.00463866" y2="662.465" stroke="white" stroke-opacity="0.2" stroke-width="0.671962"/>
<line x1="1290.14" y1="688.266" x2="0.00463866" y2="688.266" stroke="white" stroke-opacity="0.2" stroke-width="0.671962"/>
<line x1="1290.14" y1="714.066" x2="0.00463866" y2="714.066" stroke="white" stroke-opacity="0.2" stroke-width="0.671962"/>
<line x1="1290.14" y1="739.871" x2="0.00463866" y2="739.871" stroke="white" stroke-opacity="0.2" stroke-width="0.671962"/>
<line x1="1290.14" y1="765.672" x2="0.00463866" y2="765.672" stroke="white" stroke-opacity="0.2" stroke-width="0.671962"/>
<line x1="1290.14" y1="791.477" x2="0.00512694" y2="791.477" stroke="white" stroke-opacity="0.2" stroke-width="0.671962"/>
<line x1="1290.14" y1="817.281" x2="0.00512694" y2="817.281" stroke="white" stroke-opacity="0.2" stroke-width="0.671962"/>
<line x1="1290.14" y1="843.082" x2="0.00512694" y2="843.082" stroke="white" stroke-opacity="0.2" stroke-width="0.671962"/>
<line x1="1290.14" y1="868.883" x2="0.00512694" y2="868.883" stroke="white" stroke-opacity="0.2" stroke-width="0.671962"/>
<line x1="1290.14" y1="894.688" x2="0.00512694" y2="894.688" stroke="white" stroke-opacity="0.2" stroke-width="0.671962"/>
<line x1="1290.14" y1="920.488" x2="0.00512694" y2="920.488" stroke="white" stroke-opacity="0.2" stroke-width="0.671962"/>
<line x1="1290.14" y1="946.293" x2="0.00512694" y2="946.293" stroke="white" stroke-opacity="0.2" stroke-width="0.671962"/>
<line x1="1290.14" y1="972.098" x2="0.00512694" y2="972.098" stroke="white" stroke-opacity="0.2" stroke-width="0.671962"/>
<line x1="1290.14" y1="997.898" x2="0.00512694" y2="997.898" stroke="white" stroke-opacity="0.2" stroke-width="0.671962"/>
<line x1="1290.14" y1="1023.7" x2="0.00512694" y2="1023.7" stroke="white" stroke-opacity="0.2" stroke-width="0.671962"/>
<line x1="1290.14" y1="1049.5" x2="0.00512694" y2="1049.5" stroke="white" stroke-opacity="0.2" stroke-width="0.671962"/>
<line x1="1290.14" y1="1075.3" x2="0.00512694" y2="1075.3" stroke="white" stroke-opacity="0.2" stroke-width="0.671962"/>
<line x1="1290.14" y1="1101.11" x2="0.00561522" y2="1101.11" stroke="white" stroke-opacity="0.2" stroke-width="0.671962"/>
<line x1="1290.14" y1="1126.91" x2="0.00561522" y2="1126.91" stroke="white" stroke-opacity="0.2" stroke-width="0.671962"/>
<line x1="1290.14" y1="1152.71" x2="0.00561522" y2="1152.71" stroke="white" stroke-opacity="0.2" stroke-width="0.671962"/>
<line x1="1290.14" y1="1178.52" x2="0.00561522" y2="1178.52" stroke="white" stroke-opacity="0.2" stroke-width="0.671962"/>
<line x1="1290.14" y1="1204.32" x2="0.00561522" y2="1204.32" stroke="white" stroke-opacity="0.2" stroke-width="0.671962"/>
<line x1="1290.14" y1="1230.12" x2="0.00561522" y2="1230.12" stroke="white" stroke-opacity="0.2" stroke-width="0.671962"/>
<line x1="1290.14" y1="1255.93" x2="0.0061035" y2="1255.93" stroke="white" stroke-opacity="0.2" stroke-width="0.671962"/>
<line x1="1290.14" y1="1281.73" x2="0.0061035" y2="1281.73" stroke="white" stroke-opacity="0.2" stroke-width="0.671962"/>
<line x1="1290.14" y1="1307.53" x2="0.0061035" y2="1307.53" stroke="white" stroke-opacity="0.2" stroke-width="0.671962"/>
<line x1="1290.14" y1="1333.33" x2="0.0061035" y2="1333.33" stroke="white" stroke-opacity="0.2" stroke-width="0.671962"/>
<line x1="1290.14" y1="1359.14" x2="0.0061035" y2="1359.14" stroke="white" stroke-opacity="0.2" stroke-width="0.671962"/>
<line x1="1290.14" y1="1384.94" x2="0.0061035" y2="1384.94" stroke="white" stroke-opacity="0.2" stroke-width="0.671962"/>
<line x1="1290.14" y1="1410.74" x2="0.0061035" y2="1410.74" stroke="white" stroke-opacity="0.2" stroke-width="0.671962"/>
<line x1="1290.14" y1="1436.54" x2="0.0061035" y2="1436.54" stroke="white" stroke-opacity="0.2" stroke-width="0.671962"/>
<line x1="1290.14" y1="1462.34" x2="0.0061035" y2="1462.34" stroke="white" stroke-opacity="0.2" stroke-width="0.671962"/>
<line x1="1290.14" y1="1488.15" x2="0.0061035" y2="1488.15" stroke="white" stroke-opacity="0.2" stroke-width="0.671962"/>
<line x1="1290.14" y1="1513.95" x2="0.0061035" y2="1513.95" stroke="white" stroke-opacity="0.2" stroke-width="0.671962"/>
<line x1="1290.14" y1="1539.75" x2="0.0061035" y2="1539.75" stroke="white" stroke-opacity="0.2" stroke-width="0.671962"/>
<line x1="1290.14" y1="1565.55" x2="0.00659178" y2="1565.55" stroke="white" stroke-opacity="0.2" stroke-width="0.671962"/>
<line x1="1290.14" y1="1591.36" x2="0.00659178" y2="1591.36" stroke="white" stroke-opacity="0.2" stroke-width="0.671962"/>
<line x1="1290.14" y1="1617.16" x2="0.00659178" y2="1617.16" stroke="white" stroke-opacity="0.2" stroke-width="0.671962"/>
<line x1="1290.14" y1="1642.96" x2="0.00659178" y2="1642.96" stroke="white" stroke-opacity="0.2" stroke-width="0.671962"/>
<line x1="1290.14" y1="1668.77" x2="0.00659178" y2="1668.77" stroke="white" stroke-opacity="0.2" stroke-width="0.671962"/>
<line x1="1290.14" y1="1694.57" x2="0.00659178" y2="1694.57" stroke="white" stroke-opacity="0.2" stroke-width="0.671962"/>
<line x1="1290.14" y1="1720.37" x2="0.00708006" y2="1720.37" stroke="white" stroke-opacity="0.2" stroke-width="0.671962"/>
<line x1="1290.14" y1="1746.18" x2="0.00708006" y2="1746.18" stroke="white" stroke-opacity="0.2" stroke-width="0.671962"/>
<line x1="1290.14" y1="1771.98" x2="0.00708006" y2="1771.98" stroke="white" stroke-opacity="0.2" stroke-width="0.671962"/>
<line x1="1290.14" y1="1797.78" x2="0.00708006" y2="1797.78" stroke="white" stroke-opacity="0.2" stroke-width="0.671962"/>
<line x1="1290.14" y1="1823.58" x2="0.00708006" y2="1823.58" stroke="white" stroke-opacity="0.2" stroke-width="0.671962"/>
<line x1="1290.14" y1="1849.38" x2="0.00708006" y2="1849.38" stroke="white" stroke-opacity="0.2" stroke-width="0.671962"/>
<line x1="1290.14" y1="1875.19" x2="0.00708006" y2="1875.19" stroke="white" stroke-opacity="0.2" stroke-width="0.671962"/>
<line x1="1290.14" y1="1900.99" x2="0.00708006" y2="1900.99" stroke="white" stroke-opacity="0.2" stroke-width="0.671962"/>
<line x1="1290.14" y1="1926.79" x2="0.00708006" y2="1926.79" stroke="white" stroke-opacity="0.2" stroke-width="0.671962"/>
<line x1="1290.14" y1="1952.6" x2="0.00708006" y2="1952.6" stroke="white" stroke-opacity="0.2" stroke-width="0.671962"/>
<line x1="1290.14" y1="1978.4" x2="0.00708006" y2="1978.4" stroke="white" stroke-opacity="0.2" stroke-width="0.671962"/>
<line x1="1290.14" y1="2004.2" x2="0.00756834" y2="2004.2" stroke="white" stroke-opacity="0.2" stroke-width="0.671962"/>
<line x1="1290.14" y1="2030" x2="0.00756834" y2="2030" stroke="white" stroke-opacity="0.2" stroke-width="0.671962"/>
<line x1="1290.14" y1="2055.8" x2="0.00756834" y2="2055.8" stroke="white" stroke-opacity="0.2" stroke-width="0.671962"/>
<line x1="1290.14" y1="2081.61" x2="0.00756834" y2="2081.61" stroke="white" stroke-opacity="0.2" stroke-width="0.671962"/>
<line x1="1290.14" y1="2107.41" x2="0.00756834" y2="2107.41" stroke="white" stroke-opacity="0.2" stroke-width="0.671962"/>
<line x1="1290.14" y1="2133.21" x2="0.00756834" y2="2133.21" stroke="white" stroke-opacity="0.2" stroke-width="0.671962"/>
<line x1="1290.14" y1="2159.02" x2="0.00805663" y2="2159.02" stroke="white" stroke-opacity="0.2" stroke-width="0.671962"/>
<line x1="1290.14" y1="2184.82" x2="0.00805663" y2="2184.82" stroke="white" stroke-opacity="0.2" stroke-width="0.671962"/>
<line x1="1290.14" y1="2210.62" x2="0.00805663" y2="2210.62" stroke="white" stroke-opacity="0.2" stroke-width="0.671962"/>
<line x1="1290.14" y1="2236.42" x2="0.00805663" y2="2236.42" stroke="white" stroke-opacity="0.2" stroke-width="0.671962"/>
<line x1="1290.14" y1="2262.23" x2="0.00805663" y2="2262.23" stroke="white" stroke-opacity="0.2" stroke-width="0.671962"/>
<line x1="1290.14" y1="2288.03" x2="0.00805663" y2="2288.03" stroke="white" stroke-opacity="0.2" stroke-width="0.671962"/>
<line x1="1290.14" y1="2313.83" x2="0.00805663" y2="2313.83" stroke="white" stroke-opacity="0.2" stroke-width="0.671962"/>
<line x1="1290.14" y1="2339.64" x2="0.00805663" y2="2339.64" stroke="white" stroke-opacity="0.2" stroke-width="0.671962"/>
<line x1="1290.14" y1="2365.44" x2="0.00805663" y2="2365.44" stroke="white" stroke-opacity="0.2" stroke-width="0.671962"/>
<line x1="1290.14" y1="2391.24" x2="0.00805663" y2="2391.24" stroke="white" stroke-opacity="0.2" stroke-width="0.671962"/>
<line x1="1290.14" y1="2417.04" x2="0.00805663" y2="2417.04" stroke="white" stroke-opacity="0.2" stroke-width="0.671962"/>
<line x1="1290.14" y1="2442.85" x2="0.00854491" y2="2442.85" stroke="white" stroke-opacity="0.2" stroke-width="0.671962"/>
<line x1="1290.14" y1="2468.65" x2="0.00854491" y2="2468.65" stroke="white" stroke-opacity="0.2" stroke-width="0.671962"/>
<line x1="1290.14" y1="2494.45" x2="0.00854491" y2="2494.45" stroke="white" stroke-opacity="0.2" stroke-width="0.671962"/>
<line x1="1290.14" y1="2520.25" x2="0.00854491" y2="2520.25" stroke="white" stroke-opacity="0.2" stroke-width="0.671962"/>
<line x1="1290.14" y1="2546.05" x2="0.00854491" y2="2546.05" stroke="white" stroke-opacity="0.2" stroke-width="0.671962"/>
<line x1="1290.14" y1="2571.86" x2="0.00854491" y2="2571.86" stroke="white" stroke-opacity="0.2" stroke-width="0.671962"/>
<line x1="1290.14" y1="2597.66" x2="0.00903319" y2="2597.66" stroke="white" stroke-opacity="0.2" stroke-width="0.671962"/>
<line x1="1290.14" y1="2623.46" x2="0.00903319" y2="2623.46" stroke="white" stroke-opacity="0.2" stroke-width="0.671962"/>
<line x1="1290.14" y1="2649.27" x2="0.00903319" y2="2649.27" stroke="white" stroke-opacity="0.2" stroke-width="0.671962"/>
<line x1="1290.14" y1="2675.07" x2="0.00903319" y2="2675.07" stroke="white" stroke-opacity="0.2" stroke-width="0.671962"/>
<line x1="1290.14" y1="2700.87" x2="0.00903319" y2="2700.87" stroke="white" stroke-opacity="0.2" stroke-width="0.671962"/>
<line x1="1290.14" y1="2726.68" x2="0.00903319" y2="2726.68" stroke="white" stroke-opacity="0.2" stroke-width="0.671962"/>
<line x1="1290.14" y1="2752.48" x2="0.00903319" y2="2752.48" stroke="white" stroke-opacity="0.2" stroke-width="0.671962"/>
<line x1="1290.14" y1="2778.28" x2="0.00903319" y2="2778.28" stroke="white" stroke-opacity="0.2" stroke-width="0.671962"/>
<line x1="1290.14" y1="2804.09" x2="0.00903319" y2="2804.09" stroke="white" stroke-opacity="0.2" stroke-width="0.671962"/>
<line x1="1290.14" y1="2829.89" x2="0.00903319" y2="2829.89" stroke="white" stroke-opacity="0.2" stroke-width="0.671962"/>
<line x1="1290.14" y1="2855.69" x2="0.00903319" y2="2855.69" stroke="white" stroke-opacity="0.2" stroke-width="0.671962"/>
<line x1="1290.14" y1="2881.49" x2="0.00903319" y2="2881.49" stroke="white" stroke-opacity="0.2" stroke-width="0.671962"/>
<line x1="1290.14" y1="2907.29" x2="0.00952147" y2="2907.29" stroke="white" stroke-opacity="0.2" stroke-width="0.671962"/>
<line x1="1290.14" y1="2933.09" x2="0.00952147" y2="2933.09" stroke="white" stroke-opacity="0.2" stroke-width="0.671962"/>
<line x1="1290.14" y1="2958.9" x2="0.00952147" y2="2958.9" stroke="white" stroke-opacity="0.2" stroke-width="0.671962"/>
<line x1="1290.14" y1="2984.7" x2="0.00952147" y2="2984.7" stroke="white" stroke-opacity="0.2" stroke-width="0.671962"/>
<line x1="1290.14" y1="3010.5" x2="0.00952147" y2="3010.5" stroke="white" stroke-opacity="0.2" stroke-width="0.671962"/>
<line x1="1290.14" y1="3036.31" x2="0.00952147" y2="3036.31" stroke="white" stroke-opacity="0.2" stroke-width="0.671962"/>
<line x1="1290.14" y1="3062.11" x2="0.0100098" y2="3062.11" stroke="white" stroke-opacity="0.2" stroke-width="0.671962"/>
<line x1="1290.14" y1="3087.91" x2="0.0100098" y2="3087.91" stroke="white" stroke-opacity="0.2" stroke-width="0.671962"/>
<line x1="1290.14" y1="3113.71" x2="0.0100098" y2="3113.71" stroke="white" stroke-opacity="0.2" stroke-width="0.671962"/>
<line x1="1290.14" y1="3139.52" x2="0.0100098" y2="3139.52" stroke="white" stroke-opacity="0.2" stroke-width="0.671962"/>
<line x1="1290.14" y1="3165.32" x2="0.0100098" y2="3165.32" stroke="white" stroke-opacity="0.2" stroke-width="0.671962"/>
<line x1="1290.14" y1="3191.13" x2="0.0100098" y2="3191.12" stroke="white" stroke-opacity="0.2" stroke-width="0.671962"/>
<line x1="1290.14" y1="3216.93" x2="0.0100098" y2="3216.93" stroke="white" stroke-opacity="0.2" stroke-width="0.671962"/>
<line x1="1290.14" y1="3242.73" x2="0.0100098" y2="3242.73" stroke="white" stroke-opacity="0.2" stroke-width="0.671962"/>
<line x1="1290.14" y1="3268.53" x2="0.0100098" y2="3268.53" stroke="white" stroke-opacity="0.2" stroke-width="0.671962"/>
<line x1="1290.14" y1="3294.33" x2="0.0100098" y2="3294.33" stroke="white" stroke-opacity="0.2" stroke-width="0.671962"/>
<line x1="1290.14" y1="3320.14" x2="0.0100098" y2="3320.14" stroke="white" stroke-opacity="0.2" stroke-width="0.671962"/>
<line x1="1290.14" y1="3345.94" x2="0.010498" y2="3345.94" stroke="white" stroke-opacity="0.2" stroke-width="0.671962"/>
<line x1="1290.14" y1="3371.74" x2="0.010498" y2="3371.74" stroke="white" stroke-opacity="0.2" stroke-width="0.671962"/>
<line x1="1290.14" y1="3397.54" x2="0.010498" y2="3397.54" stroke="white" stroke-opacity="0.2" stroke-width="0.671962"/>
<line x1="1290.14" y1="3423.35" x2="0.010498" y2="3423.35" stroke="white" stroke-opacity="0.2" stroke-width="0.671962"/>
<line x1="1290.14" y1="3449.15" x2="0.010498" y2="3449.15" stroke="white" stroke-opacity="0.2" stroke-width="0.671962"/>
<line x1="1290.14" y1="3474.95" x2="0.0109863" y2="3474.95" stroke="white" stroke-opacity="0.2" stroke-width="0.671962"/>
<line x1="1290.14" y1="3500.75" x2="0.0109863" y2="3500.75" stroke="white" stroke-opacity="0.2" stroke-width="0.671962"/>
<line x1="1290.14" y1="3526.55" x2="0.0109863" y2="3526.55" stroke="white" stroke-opacity="0.2" stroke-width="0.671962"/>
<line x1="1290.14" y1="3552.36" x2="0.0109863" y2="3552.36" stroke="white" stroke-opacity="0.2" stroke-width="0.671962"/>
<line x1="1290.14" y1="3578.16" x2="0.0109863" y2="3578.16" stroke="white" stroke-opacity="0.2" stroke-width="0.671962"/>
</g>
</g>
<defs>
<linearGradient id="paint0_linear_985_600" x1="6.96345e-05" y1="-83" x2="1356" y2="3392.5" gradientUnits="userSpaceOnUse">
<stop offset="0.0209809" stop-color="#D67EE2" stop-opacity="0.64"/>
<stop offset="0.20459" stop-color="#3B3BF9" stop-opacity="0.72"/>
<stop offset="0.336422" stop-color="#18131A" stop-opacity="0.131006"/>
<stop offset="0.933245" stop-color="#071612" stop-opacity="0"/>
<stop offset="1" stop-opacity="0"/>
</linearGradient>
<linearGradient id="paint1_linear_985_600" x1="1996.99" y1="2973.74" x2="-640.988" y2="335.762" gradientUnits="userSpaceOnUse">
<stop offset="0.063205" stop-color="#D67EE2" stop-opacity="0.68"/>
<stop offset="0.203584" stop-color="#3B3BF9" stop-opacity="0.6"/>
<stop offset="0.629263" stop-color="#18131A" stop-opacity="0.131006"/>
<stop offset="0.933245" stop-color="#071612" stop-opacity="0"/>
<stop offset="1" stop-opacity="0"/>
</linearGradient>
<clipPath id="clip0_985_600">
<rect width="1280" height="3588" fill="white"/>
</clipPath>
</defs>
</svg>
