<svg version="1.2" xmlns="http://www.w3.org/2000/svg" viewBox="0 0 2418 283" width="2418" height="283">
	<title>devfest24_footer_logo-svg</title>
	<defs>
		<clipPath clipPathUnits="userSpaceOnUse" id="cp1">
			<path d="m0 0h2417.4v282.3h-2417.4z"/>
		</clipPath>
	</defs>
	<style>
		.s0 { fill: #1e1e1e } 
		.s1 { fill: #ffffff;stroke: #1e1e1e;stroke-linejoin: round;stroke-width: 9.6 } 
		.s2 { fill: #ea4335;stroke: #1e1e1e;stroke-miterlimit:10;stroke-width: 9.6 } 
		.s3 { fill: #4285f4;stroke: #1e1e1e;stroke-miterlimit:10;stroke-width: 9.6 } 
		.s4 { fill: #f9ab00;stroke: #1e1e1e;stroke-miterlimit:10;stroke-width: 9.6 } 
		.s5 { fill: #34a853;stroke: #1e1e1e;stroke-miterlimit:10;stroke-width: 9.6 } 
		.s6 { fill: #ffff } 
	</style>
	<g id="Clip-Path" clip-path="url(#cp1)">
		<g>
			<path fill-rule="evenodd" class="s6" d="m711.6 25.5c19.9 11 35.2 26.1 45.9 45.5 10.7 19.3 16.1 41.8 16.1 67.3 0 25.5-5.4 48-16.1 67.5-10.8 19.5-26 34.7-45.9 45.5-19.8 10.8-43.5 16.2-70.9 16.2h-87.4v-258.5h87.4c27.4 0 51 5.5 70.9 16.4zm3.3 156.5c6.4-12.5 9.6-26.8 9.6-43.7 0-16.9-3.2-31.5-9.6-43.9-6.4-12.4-15.9-22-28.7-28.9-12.8-6.9-28.7-10.3-47.7-10.3h-36.5v166.1h36.5c19.1 0 34.9-3.4 47.7-10.3 12.8-6.9 22.3-16.6 28.7-29.1z"/>
			<path fill-rule="evenodd" class="s6" d="m941.3 90c13.5 8.5 23.7 19.7 30.7 33.8q10.5 21.1 10.5 46.8c0 3.8-0.2 7.1-0.4 9.9-0.2 2.8-0.5 4.8-0.7 6h-138c1 6.9 2.9 13.2 5.8 18.6 4.6 8.6 10.8 15 18.6 19.5 7.8 4.5 14.9 6.7 26.2 6.7 11.3 0 20.8-2.5 28.5-7.4 7.7-4.9 13.8-11.1 18.1-18.6l38.3 18.8c-8.6 15.1-19.9 27.1-33.9 35.9-13.9 8.8-33.1 13.2-51.6 13.2-18.5 0-35-4.2-49.6-12.6-14.6-8.5-26-20-34.3-34.7-8.3-14.7-12.5-32.7-12.5-50.2 0-17.5 4.1-33.8 12.3-48.7 8.2-14.9 19.4-26.9 33.6-35.9 14.2-9 29-13.5 48.7-13.5q29.5 0 49.8 12.6zm-96 63q0-0.1 0-0.1zm0-0.1h91.7c-0.2-4.1-1.5-8.3-3.6-12.6-2.1-4.3-5.2-8.3-9-11.9-3.9-3.6-8.5-6.5-13.9-8.8-5.4-2.3-9.4-3.4-18.6-3.4-9.2 0-17.5 2.4-25.1 7.2-7.6 4.8-13.6 11.5-17.9 20-1.5 3-2.6 6.1-3.6 9.5z"/>
			<path class="s6" d="m1087.1 203.2h-2.9l-46.6-119.8h-53.7l77.9 184.1h47l78.7-184.1h-53.1z"/>
			<path class="s6" d="m1210.8 267.5h48.7v-103.3h103.6v-46.2h-103.6v-62.8h115.2v-46.2h-163.9z"/>
			<path fill-rule="evenodd" class="s6" d="m1533.2 90c13.5 8.5 23.7 19.7 30.7 33.8q10.5 21.1 10.5 46.8c0 3.8-0.2 7.1-0.4 9.9-0.2 2.8-0.5 4.8-0.7 6h-138c1 6.9 2.9 13.2 5.8 18.6 4.6 8.6 10.8 15 18.6 19.5 7.8 4.5 14.9 6.7 26.2 6.7 11.3 0 20.8-2.5 28.5-7.4 7.7-4.9 13.8-11.1 18.1-18.6l38.3 18.8c-8.6 15.1-19.9 27.1-33.9 35.9-13.9 8.8-33.1 13.2-51.6 13.2-18.5 0-35-4.2-49.6-12.6-14.6-8.5-26-20-34.3-34.7-8.3-14.7-12.5-32.7-12.5-50.2 0-17.5 4.1-33.8 12.3-48.7 8.2-14.9 19.4-26.9 33.6-35.9 14.2-9 29-13.5 48.7-13.5q29.5 0 49.8 12.6zm-95.9 63q0-0.1 0-0.1zm0-0.1h91.7q-0.3-6.1-3.6-12.6c-2.1-4.3-5.2-8.3-9-11.9-3.9-3.6-8.5-6.5-13.9-8.8-5.4-2.3-9.4-3.4-18.6-3.4-9.2 0-17.5 2.4-25.1 7.2-7.6 4.8-13.6 11.5-17.9 20-1.5 3-2.6 6.1-3.6 9.5z"/>
			<path class="s6" d="m1696.4 157.7l-27.1-6.5c-6.7-1.7-12.5-4.2-17.3-7.6-4.8-3.4-7.2-7.3-7.2-11.9 0-4.6 2.4-8.1 7.2-11.2 4.8-3.1 11.3-4.7 19.5-4.7 8.2 0 13.5 1.4 19.7 4.3 6.1 2.9 11.1 7.9 15 15.2l40.4-17.7c-4.3-9.1-10.1-16.7-17.3-22.6-7.2-5.9-15.8-10.3-25.6-13.2-9.9-2.9-20.9-4.3-33.2-4.3-12.3 0-25.3 2.3-36.3 6.9-11 4.6-19.6 11-26 19.1-6.4 8.2-9.6 17.8-9.6 28.9 0 11.1 2.5 18.6 7.4 26.2 4.9 7.6 11.4 13.8 19.3 18.8 7.9 4.9 16.4 8.4 25.3 10.3l21.7 4.7c5.1 1 10 2.2 14.8 3.8 4.8 1.6 8.8 3.7 12.1 6.5 3.2 2.8 4.9 6.6 4.9 11.4 0 4.8-3.1 11.4-9.4 13.9-6.3 2.5-13.2 3.8-20.9 3.8-7.7 0-17.6-2.2-24.6-6.7-7-4.5-12.5-11-16.6-19.7l-42.2 18.4c3.4 8.9 8.5 17.1 15.5 24.5 7 7.5 16.1 13.5 27.3 18.1 11.2 4.6 24.7 6.9 40.6 6.9 15.9 0 27.6-2.5 39.4-7.4 11.8-4.9 21.2-11.9 28.2-20.9 7-9 10.5-19.6 10.5-31.6 0-12-4.6-25-13.9-34.7-9.3-9.6-23-16.6-41.3-20.9z"/>
			<path class="s6" d="m1879 224.4c-3.4 1.1-7 1.6-10.8 1.6q-12.3 0-17.7-6.3c-3.6-4.2-5.4-10.8-5.4-19.7v-76.2h45.1v-40.4h-45.1v-52h-47.3v52h-32.1v40.4h32.1v84.8q0 29 16.2 45.3c10.8 11 25.8 16.4 44.8 16.4 19 0 11.4-0.5 16.8-1.6 5.4-1.1 10.8-2.6 16.1-4.5v-46.2q-7.6 4.6-12.6 6.3z"/>
			<path class="s1" d="m2276.8 9.3h-185.8c-71.5 0-129.4 57.9-129.4 129.4 0 71.5 57.9 129.4 129.4 129.4h185.8c71.5 0 129.4-57.9 129.4-129.4 0-71.5-57.9-129.4-129.4-129.4z"/>
			<path class="s0" d="m2063.2 178.7v-9.6c0.2-0.2 0.9-1 2-2.2 1.1-1.2 2.6-2.8 4.3-4.8 1.7-1.9 3.6-4 5.6-6.2 2-2.2 4-4.5 6.1-6.7 2-2.3 3.9-4.3 5.7-6.2q2.6-2.9 4.2-4.5c3.5-3.8 6.2-7.3 7.9-10.2 1.7-3 2.5-6.1 2.5-9.5 0-3.4-0.6-4.8-1.8-6.8-1.2-2.1-2.9-3.7-5.2-5-2.2-1.2-4.8-1.9-7.8-1.9-3 0-5.2 0.6-7.3 1.8-2.1 1.2-3.7 2.7-5 4.4-1.2 1.7-2.1 3.4-2.4 5.1l-8.7-3.5c0.5-1.6 1.3-3.3 2.4-5.3 1.1-2 2.7-3.8 4.7-5.6 2-1.8 4.3-3.3 7.1-4.4 2.8-1.1 6-1.7 9.6-1.7 3.6 0 9.4 1.1 13 3.3 3.6 2.2 6.4 5 8.3 8.4 1.9 3.4 2.9 7.1 2.9 11 0 3.9-0.7 6.7-2.1 10-1.4 3.2-3.2 6.2-5.2 9-2 2.8-4 5.1-5.9 7.1-1 1-2.3 2.4-4 4.2-1.7 1.8-3.5 3.8-5.5 6-2 2.2-3.9 4.2-5.8 6.3-1.9 2-3.5 3.8-4.9 5.3-1.4 1.5-2.4 2.5-2.9 3.1h37v9.2h-48.9z"/>
			<path fill-rule="evenodd" class="s0" d="m2152.7 180.5c-4.8 0-9-1.1-12.8-3.3-3.8-2.2-7-5.2-9.7-9.1-2.7-3.8-4.8-8.3-6.2-13.5-1.4-5.1-2.2-10.6-2.2-16.5 0-5.9 0.7-11.4 2.2-16.5 1.4-5.1 3.5-9.6 6.2-13.5 2.7-3.9 6-6.9 9.7-9.1 3.8-2.1 8-3.2 12.8-3.2 4.8 0 9 1.1 12.8 3.2 3.8 2.2 7.1 5.2 9.8 9.1 2.7 3.9 4.8 8.4 6.2 13.5q2.1 7.6 2.1 16.5 0 8.8-2.1 16.5c-1.4 5.1-3.5 9.6-6.2 13.5-2.7 3.8-6 6.9-9.8 9.1-3.8 2.2-8.1 3.3-12.8 3.3zm0-9.1c4.4 0 8.2-1.5 11.3-4.4 3.2-2.9 5.6-6.9 7.3-11.9 1.7-5 2.5-10.6 2.5-16.8 0-6.2-0.8-11.9-2.5-16.9-1.7-5-4.1-8.9-7.3-11.9-3.2-2.9-6.9-4.4-11.3-4.4-4.4 0-8.1 1.5-11.3 4.4-3.1 2.9-5.5 6.9-7.2 11.9-1.7 5-2.5 10.6-2.5 16.9 0 6.3 0.8 11.8 2.5 16.8 1.7 5 4.1 9 7.2 11.9 3.1 2.9 6.9 4.4 11.3 4.4z"/>
			<path class="s0" d="m2191.9 178.7v-9.6c0.2-0.2 0.9-1 2-2.2 1.1-1.2 2.6-2.8 4.3-4.8 1.7-1.9 3.6-4 5.6-6.2 2-2.2 4-4.5 6.1-6.7 2-2.3 3.9-4.3 5.7-6.2q2.6-2.9 4.2-4.5c3.5-3.8 6.2-7.3 7.9-10.2 1.7-3 2.5-6.1 2.5-9.5 0-3.4-0.6-4.8-1.8-6.8-1.2-2.1-2.9-3.7-5.2-5-2.2-1.2-4.8-1.9-7.8-1.9-3 0-5.2 0.6-7.3 1.8-2.1 1.2-3.7 2.7-5 4.4-1.2 1.7-2.1 3.4-2.4 5.1l-8.7-3.5c0.5-1.6 1.3-3.3 2.4-5.3 1.1-2 2.7-3.8 4.7-5.6 2-1.8 4.3-3.3 7.1-4.4 2.8-1.1 6-1.7 9.6-1.7 3.6 0 9.4 1.1 13 3.3 3.6 2.2 6.4 5 8.3 8.4 1.9 3.4 2.9 7.1 2.9 11 0 3.9-0.7 6.7-2.1 10-1.4 3.2-3.2 6.2-5.2 9-2 2.8-4 5.1-5.9 7.1-1 1-2.3 2.4-4 4.2-1.7 1.8-3.5 3.8-5.5 6-2 2.2-3.9 4.2-5.8 6.3-1.9 2-3.5 3.8-4.9 5.3-1.4 1.5-2.4 2.5-2.9 3.1h37v9.2h-48.9z"/>
			<path class="s0" d="m2247.8 160.8v-7.2l37.7-55.9h10.2v81h-9.4v-66.3h-0.6l-27.1 39.4h46.3v9.1h-57.2z"/>
			<path class="s2" d="m134.9 21l-106.4 76.5c-22.3 16-27.4 47.1-11.4 69.4h0.1c16 22.3 47.1 27.4 69.4 11.4l106.4-76.5c22.2-16 27.3-47 11.3-69.3v-0.1c-16.1-22.3-47.1-27.4-69.4-11.4z"/>
			<path class="s3" d="m17.2 108.9c-16.1 22.3-11 53.4 11.3 69.4l106.4 76.4c22.3 16.1 53.3 11 69.4-11.3v-0.1c16-22.3 10.9-53.3-11.3-69.4l-106.4-76.4c-22.3-16-53.4-10.9-69.4 11.4z"/>
			<path class="s4" d="m391.7 97.4l-106.4 76.5c-22.3 16-27.3 47.1-11.3 69.3v0.1c16 22.3 47.1 27.4 69.4 11.4l106.4-76.5c22.3-16 27.4-47 11.3-69.3v-0.1c-16-22.3-47.1-27.4-69.4-11.4z"/>
			<path class="s5" d="m274 32.4v0.1c-16.1 22.3-11 53.4 11.3 69.4l106.4 76.4c22.3 16 53.4 11 69.4-11.3v-0.1c16-22.3 11-53.4-11.3-69.4l-106.4-76.4c-22.3-16-53.4-11-69.4 11.3z"/>
		</g>
	</g>
</svg>