<?xml version="1.0" standalone="no"?>
<!DOCTYPE svg PUBLIC "-//W3C//DTD SVG 20010904//EN"
 "http://www.w3.org/TR/2001/REC-SVG-20010904/DTD/svg10.dtd">
<svg version="1.0" xmlns="http://www.w3.org/2000/svg"
 width="512.000000pt" height="512.000000pt" viewBox="0 0 512.000000 512.000000"
 preserveAspectRatio="xMidYMid meet">

<g transform="translate(0.000000,512.000000) scale(0.100000,-0.100000)"
fill="#000000" stroke="none">
<path d="M1749 4648 c-448 -259 -825 -475 -839 -481 -21 -8 -33 -5 -70 20 -66
44 -126 64 -205 70 -119 9 -236 -31 -322 -110 -97 -90 -143 -191 -144 -318 -1
-96 19 -168 69 -245 44 -68 92 -111 169 -151 l53 -28 2 -964 3 -964 825 -476
825 -477 -3 -55 c-4 -69 21 -178 54 -240 61 -111 187 -199 318 -222 131 -22
277 25 374 122 85 85 140 225 130 331 l-5 46 841 485 841 485 5 967 5 966 60
36 c78 47 100 68 147 139 50 78 69 143 69 242 0 252 -214 450 -466 431 -78 -6
-163 -35 -214 -75 l-34 -26 -36 20 c-20 11 -387 223 -816 471 -429 247 -789
455 -801 461 -18 10 -125 -50 -835 -460z m1581 -316 l745 -431 6 -88 c10 -139
50 -226 143 -311 31 -27 76 -60 101 -72 l45 -22 0 -877 0 -878 -765 -441 -766
-442 -42 28 c-142 94 -296 102 -449 24 l-78 -40 -755 436 -755 436 0 877 0
876 58 36 c141 87 221 226 222 386 l1 66 757 437 c416 240 764 436 772 434 8
-2 350 -197 760 -434z m-2662 -392 c125 -76 76 -250 -72 -250 -43 0 -53 4 -87
39 -35 34 -39 44 -39 87 0 113 107 179 198 124z m3907 6 c47 -20 75 -69 75
-130 0 -43 -4 -53 -39 -87 -34 -35 -44 -39 -87 -39 -148 0 -197 174 -72 250
39 24 76 25 123 6z m-1940 -3400 c25 -17 55 -74 55 -105 0 -35 -26 -86 -55
-109 -112 -88 -268 33 -206 161 39 81 128 104 206 53z"/>
<path d="M1995 3728 c-314 -181 -580 -336 -593 -344 l-22 -15 2 -680 3 -680
589 -340 c503 -291 592 -339 610 -331 12 6 278 159 591 340 l570 330 3 681 2
681 -37 24 c-21 13 -274 160 -563 326 -289 166 -538 310 -555 320 l-30 18
-570 -330z m940 -231 c182 -104 336 -195 342 -201 10 -9 -69 -59 -346 -219
-197 -114 -361 -207 -365 -207 -20 0 -724 416 -717 423 5 5 168 101 362 212
305 176 355 202 373 193 12 -6 170 -96 351 -201z m-881 -683 l356 -206 0 -420
c0 -265 -4 -418 -10 -416 -5 2 -169 95 -364 208 l-356 205 0 418 c0 235 4 417
9 417 5 0 169 -93 365 -206z m1396 -212 l0 -417 -359 -208 c-198 -114 -362
-207 -365 -207 -3 0 -6 189 -6 419 l0 419 148 85 c81 47 241 140 357 206 115
67 213 121 217 121 4 0 8 -188 8 -418z"/>
</g>
</svg>
